<svg width="36" height="36" viewBox="0 0 36 36" fill="none" xmlns="http://www.w3.org/2000/svg">
<g clip-path="url(#clip0)">
<path d="M32.6879 28.0553C32.1435 29.313 31.4991 30.4708 30.7524 31.5352C29.7347 32.9863 28.9014 33.9907 28.2592 34.5484C27.2637 35.464 26.197 35.9328 25.0548 35.9595C24.2349 35.9595 23.246 35.7262 22.0949 35.2529C20.9401 34.7818 19.8788 34.5484 18.9084 34.5484C17.8906 34.5484 16.7991 34.7818 15.6316 35.2529C14.4623 35.7262 13.5203 35.9728 12.8001 35.9973C11.7048 36.044 10.6131 35.5617 9.52335 34.5484C8.82781 33.9418 7.95784 32.9018 6.91565 31.4285C5.79747 29.8553 4.87816 28.0309 4.15796 25.9509C3.38665 23.7043 3 21.5288 3 19.4227C3 17.0101 3.52132 14.9293 4.56551 13.1855C5.38615 11.7849 6.47789 10.68 7.84429 9.86896C9.21069 9.05788 10.6871 8.64456 12.277 8.61811C13.147 8.61811 14.2879 8.88721 15.7056 9.41609C17.1193 9.94674 18.0271 10.2158 18.4251 10.2158C18.7226 10.2158 19.731 9.90118 21.4405 9.27387C23.0571 8.69211 24.4215 8.45123 25.5393 8.54611C28.5681 8.79055 30.8436 9.98451 32.3568 12.1356C29.648 13.7768 28.3081 16.0757 28.3347 19.0247C28.3592 21.3217 29.1925 23.2332 30.8302 24.751C31.5724 25.4554 32.4013 25.9998 33.3235 26.3865C33.1235 26.9664 32.9124 27.522 32.6879 28.0553ZM25.7415 0.720571C25.7415 2.52098 25.0837 4.20202 23.7727 5.75797C22.1905 7.6077 20.2768 8.67655 18.2015 8.50789C18.1751 8.2919 18.1597 8.06457 18.1597 7.82569C18.1597 6.0973 18.9122 4.24758 20.2483 2.73518C20.9154 1.96942 21.7638 1.33271 22.7927 0.824789C23.8193 0.324449 24.7904 0.0477497 25.7037 0.000366211C25.7304 0.241053 25.7415 0.481755 25.7415 0.720548V0.720571Z" fill="black"/>
</g>
<defs>
<clipPath id="clip0">
<rect width="36" height="36" fill="white"/>
</clipPath>
</defs>
</svg>
